<svg xmlns="http://www.w3.org/2000/svg" viewBox="0 0 530.04 163.76"><defs><style>.cls-1{fill:#fff;}</style></defs><g id="レイヤー_2" data-name="レイヤー 2"><g id="レイヤー_4" data-name="レイヤー 4"><g id="アイコン"><rect width="163.76" height="163.76"/><path class="cls-1" d="M40.05,59l7.43-2.54V67.94H60.27v5.89H47.48V102.4c0,6.25,1.91,9.7,6.71,9.7a14.54,14.54,0,0,0,5.08-.73l.45,5.81a19.11,19.11,0,0,1-7.34,1.17c-12,0-12.33-10.88-12.33-16.14V73.83H32.43V67.94h7.62Z"/><path class="cls-1" d="M119.83,117.36h-8L104.41,95h-24l-7.25,22.4H65.42L88.27,48.27H97ZM102.87,89l-6.8-20.49c-1.45-4.72-2.63-9.07-3.54-13.15h-.27c-.91,4.17-2.18,8.52-3.44,12.88L81.92,89Z"/><path class="cls-1" d="M127.51,112.73c0-3.44,2.27-5.89,5.44-5.89s5.35,2.45,5.35,5.89c0,3.27-2.09,5.72-5.44,5.72S127.51,115.72,127.51,112.73Z"/><path d="M195.65,13.79v9.43h5.23v7h-5.23V39a4.75,4.75,0,0,0,.3,2.09,1.74,1.74,0,0,0,1.64.79,10.51,10.51,0,0,0,2.94-.6l.7,6.56a31.22,31.22,0,0,1-6.59.77,11.58,11.58,0,0,1-5.23-.91,5.56,5.56,0,0,1-2.48-2.77,16.1,16.1,0,0,1-.81-6V30.18h-3.5v-7h3.5V18.67Z"/><path d="M232.93,38H213.88a6.12,6.12,0,0,0,1.24,3.41A4.51,4.51,0,0,0,218.71,43a5.45,5.45,0,0,0,2.66-.7A6.21,6.21,0,0,0,223,40.73l9.36.87A13.38,13.38,0,0,1,227.21,47q-3,1.63-8.71,1.63a17.94,17.94,0,0,1-7.75-1.39,11.47,11.47,0,0,1-4.68-4.41,13.31,13.31,0,0,1-1.85-7.11,12.49,12.49,0,0,1,3.72-9.41q3.72-3.6,10.28-3.6a18.39,18.39,0,0,1,8.41,1.61,10.9,10.9,0,0,1,4.69,4.67,17.14,17.14,0,0,1,1.61,8Zm-9.66-4.55a6.38,6.38,0,0,0-1.49-3.95,4.65,4.65,0,0,0-6.78.61,6.66,6.66,0,0,0-1.1,3.34Z"/><path d="M246,31.25l-9.08-.95a10.08,10.08,0,0,1,1.48-3.75,8.08,8.08,0,0,1,2.79-2.37,11.61,11.61,0,0,1,3.59-1.12,29.54,29.54,0,0,1,4.95-.4,39.3,39.3,0,0,1,6.87.48,8.84,8.84,0,0,1,4.31,2,7,7,0,0,1,1.92,3,10.71,10.71,0,0,1,.7,3.68v11a13,13,0,0,0,.22,2.74,12.46,12.46,0,0,0,1,2.54h-8.92a9.27,9.27,0,0,1-.7-1.46,9.88,9.88,0,0,1-.32-1.58A12.3,12.3,0,0,1,251,47.55a15.53,15.53,0,0,1-5.86,1c-2.95,0-5.2-.69-6.73-2.06a6.54,6.54,0,0,1-2.3-5.06,6.61,6.61,0,0,1,1.66-4.65c1.1-1.21,3.14-2.12,6.11-2.71,3.57-.71,5.88-1.22,6.94-1.5a32.59,32.59,0,0,0,3.36-1.14,3.32,3.32,0,0,0-.73-2.45,3.66,3.66,0,0,0-2.54-.7,6.55,6.55,0,0,0-3.5.75A4.06,4.06,0,0,0,246,31.25Zm8.24,5c-1.31.47-2.67.88-4.09,1.24A9.48,9.48,0,0,0,246.45,39a2.4,2.4,0,0,0-.8,1.76,2.36,2.36,0,0,0,.79,1.83,3.32,3.32,0,0,0,2.3.71,6,6,0,0,0,2.95-.77,4.7,4.7,0,0,0,1.94-1.88,6.31,6.31,0,0,0,.57-2.88Z"/><path d="M269.26,23.22h8.87v3.62A12.42,12.42,0,0,1,282,23.62a10.65,10.65,0,0,1,4.72-1,9,9,0,0,1,4.7,1.05,7.94,7.94,0,0,1,2.83,3.13,14.14,14.14,0,0,1,4.08-3.3,10.41,10.41,0,0,1,4.54-.88A8.17,8.17,0,0,1,309.09,25q2.24,2.37,2.23,7.41V48H301.8V33.89a4,4,0,0,0-.65-2.5,2.88,2.88,0,0,0-2.37-1.28,3.35,3.35,0,0,0-2.7,1.21,6,6,0,0,0-1,3.9V48h-9.52V34.36a8.32,8.32,0,0,0-.19-2.22,3,3,0,0,0-1-1.5,2.8,2.8,0,0,0-1.76-.58,3.38,3.38,0,0,0-2.69,1.24,6.21,6.21,0,0,0-1.06,4.06V48h-9.52Z"/><path d="M235,138.69H207l-3.88,13.14H178L208,72.26h26.82l29.9,79.57H238.93Zm-5.11-17.2-8.78-28.61-8.7,28.61Z"/><path d="M271.08,129.68h23.61v22.15H271.08Z"/><path d="M309.24,72.26h32.33L354,120.67l12.39-48.41h32.31v79.57H378.6V91.15l-15.51,60.68H344.86L329.37,91.15v60.68H309.24Z"/><path d="M413,129.68h23.61v22.15H413Z"/><path d="M451.77,151.83V72.26h41q11.4,0,17.43,1.95a18.54,18.54,0,0,1,9.71,7.25,22,22,0,0,1,3.69,12.89A21.26,21.26,0,0,1,513,113.56a29.62,29.62,0,0,1-8.63,3.15,24.65,24.65,0,0,1,6.4,2.93,25,25,0,0,1,3.93,4.19,31.41,31.41,0,0,1,3.45,4.94L530,151.83H502.26l-13.14-24.32q-2.5-4.73-4.45-6.13a10.36,10.36,0,0,0-6-1.85h-2.17v32.3Zm24.7-47.33h10.37a36.58,36.58,0,0,0,6.51-1.09,6.5,6.5,0,0,0,4-2.49,7.38,7.38,0,0,0,1.55-4.62,7.29,7.29,0,0,0-2.45-5.91q-2.43-2.07-9.17-2.07h-10.8Z"/></g></g></g></svg>